<svg id="组_1" data-name="组 1" xmlns="http://www.w3.org/2000/svg" width="1240" height="1240" viewBox="0 0 1240 1240">
  <metadata><?xpacket begin="﻿" id="W5M0MpCehiHzreSzNTczkc9d"?>
<x:xmpmeta xmlns:x="adobe:ns:meta/" x:xmptk="Adobe XMP Core 5.6-c142 79.160924, 2017/07/13-01:06:39        ">
   <rdf:RDF xmlns:rdf="http://www.w3.org/1999/02/22-rdf-syntax-ns#">
      <rdf:Description rdf:about=""/>
   </rdf:RDF>
</x:xmpmeta>
                                                                                                    
                                                                                                    
                                                                                                    
                                                                                                    
                                                                                                    
                                                                                                    
                                                                                                    
                                                                                                    
                                                                                                    
                                                                                                    
                                                                                                    
                                                                                                    
                                                                                                    
                                                                                                    
                                                                                                    
                                                                                                    
                                                                                                    
                                                                                                    
                                                                                                    
                                                                                                    
                           
<?xpacket end="w"?></metadata>
<defs>
    <style>
      .cls-1 {
        fill: #fff;
      }

      .cls-2 {
        fill-rule: evenodd;
      }
    </style>
  </defs>
  <circle id="椭圆_1" data-name="椭圆 1" class="cls-1" cx="620" cy="620" r="472.5"/>
  <path id="多边形_1_拷贝" data-name="多边形 1 拷贝" class="cls-2" d="M620,1130c-281.113,0-509-227.887-509-509a506.708,506.708,0,0,1,97.935-300.23l35.158,25.519A462.861,462.861,0,0,0,155,620c0,256.812,208.188,465,465,465s465-208.188,465-465S876.812,155,620,155a462.989,462.989,0,0,0-202.5,46.326L455.018,236.6,299.005,275.992,338.432,127l45.63,42.9A506.757,506.757,0,0,1,620,112c281.113,0,509,227.887,509,509S901.113,1130,620,1130Z"/>
  <path id="椭圆_2" data-name="椭圆 2" class="cls-2" d="M860,813H506a9.959,9.959,0,0,1-3.664-.7A127.441,127.441,0,0,1,489,813,126,126,0,0,1,363,687q0-1.6.04-3.2c-0.021-.266-0.04-0.531-0.04-0.8V440a10,10,0,0,1,10-10H486a10,10,0,0,1,10,10V683a10,10,0,0,0,10,10H737V440a10,10,0,0,1,10-10H860a10,10,0,0,1,10,10V803A10,10,0,0,1,860,813Z"/>
</svg>
